<?xml version="1.0" encoding="utf-8"?>
<!-- Generator: Adobe Illustrator 24.0.0, SVG Export Plug-In . SVG Version: 6.00 Build 0)  -->
<svg version="1.1" id="Layer_1" xmlns="http://www.w3.org/2000/svg" xmlns:xlink="http://www.w3.org/1999/xlink" x="0px" y="0px"
	 viewBox="0 0 734.99 539.98" style="enable-background:new 0 0 734.99 539.98;" xml:space="preserve">
<style type="text/css">
	.st0{fill-rule:evenodd;clip-rule:evenodd;fill:url(#SVGID_1_);}
	.st1{fill-rule:evenodd;clip-rule:evenodd;fill:#FAAF40;}
	.st2{fill-rule:evenodd;clip-rule:evenodd;}
</style>
<g>
	
		<linearGradient id="SVGID_1_" gradientUnits="userSpaceOnUse" x1="-4062.6709" y1="-230.0129" x2="-4061.6709" y2="-230.0129" gradientTransform="matrix(328.4984 0 0 -328.4984 1334602.125 -75147.1875)">
		<stop  offset="0" style="stop-color:#231F20"/>
		<stop  offset="0.0896" style="stop-color:#231F20"/>
		<stop  offset="1" style="stop-color:#231F20"/>
	</linearGradient>
	<path class="st0" d="M346.93,322.69c-4.12-5.95-10.96-8.68-17.8-6.86c-16.44,0-32.87,4.11-47.48,11.42
		c-19.63,7.75-38.8,16.44-57.99,26.01c20.56-15.52,32.43-26.47,35.61-31.94c7.31-8.68,15.54-16.89,25.12-24.66
		c-13.23,3.65-25.12,11.42-33.33,22.37c-13.24,15.52-28.75,26.49-47.03,32.87c-2.26-0.91-3.19-4.11-1.82-6.39
		c13.24-11.88,10.51-21.91-8.67-30.59c9.14-19.63,49.76-41.08,49.76-8.67c0.91-1.82,0.46-13.24,0-15.07
		c-6.4-17.8-45.66,1.83-54.78,21.45c0,4.1-1.82,5.47-3.21,5.47c-1.82,0-3.19-1.82-3.19-5.47c-12.31-12.79-22.37-21.45-32.87-26.01
		c-5.02-2.3-12.31-4.12-18.26-2.75c-8.21,1.83-11.42,8.68-5.02,20.56c-0.46-2.75-2.28-44.29,51.13,10.49
		c-19.19,8.68-21.92,18.72-8.68,30.59c1.38,2.28,0.47,5.47-1.82,6.39c-18.26-6.39-33.78-17.35-47.03-32.87
		c-8.21-10.95-20.07-18.72-32.87-22.37c9.14,7.77,17.36,15.98,24.66,24.66c3.19,5.47,15.07,16.42,35.61,31.94
		C128.25,343.68,108.63,335,89,327.25c-14.61-7.31-31.05-11.42-47.48-11.42c-6.84-1.82-13.7,0.91-17.8,6.86
		c-3.67,5.47-3.67,13.23,0.91,18.72c-0.46,8.67,10.96,17.35,34.24,26.93c-5.47,5.49-5.47,14.15,0,20.08
		c5.93,10.51,19.63,13.7,40.64,9.59c5.47-4.1,15.96-7.3,32.4-9.12c11.42,0,20.1,3.19,26.01,9.58c-13.23,3.19-26.47,4.11-39.7,3.19
		c-22.38,18.72-38.82,43.38-47.94,71.21c10.95-19.63,28.29-40.62,52.5-62.53c0,0,10.49-1.37,32.4-3.65
		c-41.08,23.28-87.64,86.74-51.59,133.29c-12.77-32.42,0.91-71.22,41.1-115.49c-7.75,57.06,5.93,92.21,40.62,105.46
		c34.7-13.24,48.39-48.39,40.64-105.46c40.17,44.27,53.87,83.07,41.08,115.49c36.06-46.55-10.51-110.02-51.59-133.29
		c21.92,2.28,32.42,3.65,32.42,3.65c24.21,21.91,41.54,42.91,52.5,62.53c-9.14-27.84-25.56-52.5-47.94-71.21
		c-13.23,0.91-26.47,0-39.71-3.19c5.93-6.38,14.61-9.58,26.01-9.58c16.45,1.82,26.94,5.02,32.43,9.12
		c20.98,4.11,34.7,0.91,40.62-9.59c5.47-5.93,5.47-14.6,0-20.08c23.28-9.58,34.7-18.26,34.24-26.93
		C350.58,335.91,350.58,328.16,346.93,322.69z M88.53,368.33c4.58,3.19,8.68,6.4,12.8,9.14c-6.86,1.82-12.8,3.19-17.8,4.1
		c-4.58,0-8.68-2.74-10.98-6.38c-3.65,2.74-8.67,3.19-12.77,0.91c0.46-2.74,1.82-5.49,3.65-7.77
		C63.43,368.33,71.63,368.33,88.53,368.33z M49.74,346.42c10.03-0.91,18.72,0,26.01,3.19c7.3,0.46,14.61,0.46,21.45,0
		c17.8,8.23,26.48,12.79,26.48,12.79c-36.08,0-53.88,0-53.88,0C57.95,356.47,51.09,350.98,49.74,346.42z M95.38,368.33
		c10.95,0,30.59,0,58.89,0c-8.21,5.95-18.72,9.59-31.49,10.96c-3.21,2.74-8.22,3.19-11.87,1.37
		C105.89,376.1,100.86,371.99,95.38,368.33z M148.79,362.4c0,0-6.38,0-18.26,0c-5.02-2.28-15.07-7.3-29.21-15.07
		c-3.67-4.56-7.31-7.3-11.89-7.75c-16.89-4.58-28.75-10.96-35.61-18.73C91.74,331.81,123.22,345.96,148.79,362.4z M49.74,320.84
		c7.3,9.59,18.24,15.98,31.94,19.64c5.02,1.37,9.14,3.19,11.42,5.47c-10.49,0.46-19.17-0.91-26.47-4.11
		c-8.68-0.91-15.98-0.46-21.47,1.37c-4.56-10.05-10.49-16.44-17.35-18.26C33.76,320.84,41.06,319.48,49.74,320.84z M53.83,362.4
		c-11.86-5.47-20.07-11.42-24.65-18.72c-0.91-0.91-0.91-2.28-0.46-3.65c-2.28-1.37-3.65-5.03-3.19-10.96
		c5.93-0.46,10.96,5.02,15.52,15.52c5.47,7.75,12.77,14.16,21.45,17.8C57.54,362.4,54.5,362.4,53.83,362.4z M97.21,394.36
		c-12.33,0.91-21.45,0.46-27.4-1.82c-4.09-2.74-7.3-6.4-10.03-10.96c7.77-2.28,12.33-2.28,13.7,0c4.56,5.02,14.61,4.56,30.59-1.37
		c0,0,1.82,0.91,5.02,3.65C104.51,386.13,99.95,389.8,97.21,394.36z M137.38,385.67c-6.38-0.46-17.33,1.37-32.87,5.03
		c5.03-3.67,10.51-6.4,16.89-6.86c4.12-2.28,8.68-3.19,13.71-2.74c6.84-2.74,13.68-4.11,20.98-4.56
		C153.36,382.94,146.97,386.13,137.38,385.67z M170.72,359.66c3.18-1.37,6.38-1.37,9.12,0c2.74,1.37,4.56,3.65,5.47,6.38
		c0.91-2.74,2.74-5.02,5.47-6.38c2.75-1.37,6.4-1.37,9.14,0c3.67,1.82,5.93,5.93,5.93,10.03c0,4.58-2.26,8.23-5.93,10.51
		c-0.91,2.28-13.23,19.63-14.61,18.71c-4.56-4.56-12.33-12.33-14.59-18.71c-3.67-2.28-5.95-5.93-5.95-10.51
		C164.78,365.59,167.06,361.49,170.72,359.66z M198.56,412.62c-8.68,0-17.8,0-26.49,0c-1.35-2.28-1.82-5.47-0.91-7.77
		c5.03,0.91,23.29,0.91,28.31,0C200.38,407.14,199.93,410.34,198.56,412.62z M209.06,425.4c0,4.56-0.91,8.67-3.21,12.31
		c-13.68,0-27.38,0-41.08,0c-2.28-3.65-3.19-7.75-3.19-12.31C170.72,426.32,199.93,426.32,209.06,425.4z M160.67,448.68
		c11.4,0.91,37.89,0.91,49.31,0c1.37,5.47,0.46,11.42-2.74,15.98c-14.61,0-29.22,0-43.83,0C160.21,460.1,159.3,454.15,160.67,448.68
		z M203.12,509.41c-11.86,0-23.73,0-35.61,0c-4.11-2.75-7.3-6.86-8.67-11.42c17.8,0,35.15,0,52.96,0
		C210.43,502.55,207.24,506.65,203.12,509.41z M217.27,474.71c-0.46,4.56-3.19,9.12-6.84,11.86c-16.89,0-33.33,0-50.22,0
		c-3.65-2.74-6.39-7.3-6.86-11.86C168.9,475.62,201.77,475.62,217.27,474.71z M342.81,324.96c-6.84,1.83-12.77,8.21-17.33,18.26
		c-5.49-1.82-12.79-2.28-21.45-1.37c-7.31,3.19-15.98,4.56-26.49,4.11c2.28-2.28,6.39-4.11,11.42-5.47
		c13.68-3.67,24.65-10.05,31.94-19.64C329.59,319.48,336.88,320.84,342.81,324.96z M320.9,346.42c-1.37,4.56-8.21,10.05-20.08,15.98
		c0,0-17.8,0-53.87,0c0,0,8.67-4.56,26.47-12.79c6.86,0.46,14.16,0.46,21.47,0C302.19,346.42,310.86,345.51,320.9,346.42z
		 M317.26,320.84c-7.31,7.77-19.17,14.16-36.06,18.73c-4.56,0.46-8.21,3.19-11.87,7.75c-14.14,7.77-24.19,12.79-29.21,15.07
		c-11.88,0-18.28,0-18.28,0C247.41,345.96,278.91,331.81,317.26,320.84z M275.25,368.33c-5.47,3.66-10.49,7.77-15.51,12.33
		c-3.65,1.82-8.68,1.37-11.88-1.37c-12.79-1.37-23.29-5.02-31.5-10.96C244.67,368.33,264.3,368.33,275.25,368.33z M233.25,385.67
		c-9.59,0.46-15.98-2.74-18.72-9.12c7.3,0.46,14.16,1.82,21,4.56c5.02-0.46,9.59,0.46,14.15,2.74c5.93,0.46,11.42,3.19,16.44,6.86
		C250.6,387.04,239.64,385.22,233.25,385.67z M300.82,392.53c-5.93,2.28-15.07,2.74-27.4,1.82c-2.74-4.56-7.3-8.23-11.86-10.51
		c3.19-2.74,5.02-3.65,5.02-3.65c15.98,5.93,26.03,6.38,30.59,1.37c1.37-2.28,5.93-2.28,13.68,0
		C308.12,386.13,304.94,389.8,300.82,392.53z M298.08,375.18c-2.28,3.65-6.38,6.38-10.95,6.38c-5.03-0.91-10.98-2.28-17.82-4.1
		c4.1-2.74,8.22-5.95,12.79-9.14c16.89,0,25.1,0,25.1,0c1.83,2.28,3.21,5.03,3.65,7.77C306.77,378.38,301.73,377.92,298.08,375.18z
		 M341.9,340.03c0.47,1.37,0.47,2.74-0.44,3.65c-4.58,7.3-12.79,13.24-24.66,18.72c-0.67,0-3.7,0-8.68,0
		c8.68-3.65,15.98-10.05,21.47-17.8c4.56-10.51,9.58-15.98,15.52-15.52C345.57,335,344.64,338.66,341.9,340.03z"/>
	<path class="st1" d="M360.62,49.67c-29.21-8.22-60.25-9.13-90.37-3.19c-17.82,2.74-35.62,7.76-52.52,15.52
		c-3.19-2.29-3.65-6.39-1.82-9.59c9.14-5.94,16.44-13.7,22.38-22.37c-7.31,6.39-15.54,11.41-24.21,15.07
		c0.46-8.22-5.02-15.98-12.79-18.27c3.21-9.59,11.42-17.35,21.45-20.08c1.38,1.37,3.21,1.82,4.58,1.37c1.82-0.46,3.19-2.28,3.19-4.1
		c0-1.82-1.37-3.19-3.19-3.66c-1.37-0.91-3.19,0-4.58,1.38c-11.4,4.1-20.98,12.32-26.93,22.82c-3.19-1.37-6.86-1.82-10.51-1.37
		c-3.65-0.46-7.3,0-10.51,1.37c-5.91-10.5-15.51-18.72-26.93-22.82c-1.37-1.38-3.19-2.29-4.56-1.38c-1.82,0.46-3.21,1.83-3.21,3.66
		c0,1.82,1.38,3.65,3.21,4.1c1.37,0.46,3.19,0,4.56-1.37c10.04,2.74,18.26,10.5,21.45,20.08c-7.75,2.29-13.24,10.05-12.77,18.27
		c-8.68-3.66-16.89-8.67-24.21-15.07c5.93,8.67,13.24,16.44,22.38,22.37c1.82,3.19,1.35,7.3-1.82,9.59
		c-16.89-7.76-34.7-12.79-52.5-15.52c-30.13-5.94-61.18-5.02-90.4,3.19C-0.02,53.79-2.32,59.72,2.24,66.57
		c9.59,14.61,26.03,23.29,43.38,22.37c4.56,21.45,20.54,28.76,48.39,22.82c2.74,3.2,6.4,5.94,10.49,7.31
		c-8.67,7.76-15.98,16.44-22.37,25.57c-9.12,14.61-7.75,21,4.56,20.09c12.8-1.83,27.85-9.13,46.11-21.92
		c-5.93,8.22-11.86,16.44-16.89,24.65c-3.19,6.85-5.47,16.44-6.38,29.21c-1.82,6.85-5.95,15.07-13.24,24.65
		c8.21-2.74,15.52-10.04,20.54-21c0.91-10.04,2.74-19.17,5.47-26.48c5.94-9.13,15.07-20.55,27.85-33.78
		c-3.65,23.28,3.66,47.02,20.08,63.91c5.49,5.02,10.51,12.79,15.07,23.28c4.56-10.5,9.59-18.26,15.07-23.28
		c16.44-16.89,23.75-40.63,20.1-63.91c12.77,13.23,21.89,24.65,27.84,33.78c2.74,7.31,4.56,16.44,5.47,26.48
		c5.03,10.95,12.33,18.26,20.54,21c-7.3-9.59-11.4-17.8-13.23-24.65c-0.93-12.78-3.19-22.37-6.4-29.21
		c-5.02-8.22-10.95-16.44-16.89-24.65c18.28,12.79,33.34,20.08,46.11,21.92c12.33,0.91,13.7-5.48,4.56-20.09
		c-6.39-9.13-13.68-17.8-22.37-25.57c4.12-1.37,7.77-4.1,10.51-7.31c27.84,5.94,43.82-1.37,48.38-22.82
		c17.36,0.91,33.78-7.76,43.38-22.37C372.95,59.72,370.67,53.79,360.62,49.67z M185.32,65.65c10.51,1.37,18.28,10.04,19.19,21
		c-12.8,0-19.19,0-19.19,0s-6.39,0-19.17,0C167.06,75.7,174.81,67.02,185.32,65.65z M15.05,67.93c-5.49-6.39-5.49-10.5,0-12.32
		c40.17-11.42,86.28-6.85,137.4,13.24c0,0,1.38,2.28,5.03,7.3c-17.8-8.22-36.99-13.23-57.53-15.52C94.93,61.55,86.7,65.2,75.3,71.59
		C60.69,78.44,52.01,82.09,48.83,83C35.12,82.09,23.71,77.06,15.05,67.93z M94.93,106.74c-26.03,2.74-40.18-3.66-42.45-18.72
		c16.89-8.22,32.87-15.52,47.47-22.37c9.14-0.91,19.63,1.37,32.41,6.39C118.22,86.2,105.89,97.61,94.93,106.74z M89.91,156.05
		c-4.12,1.82-5.03-0.46-1.82-5.94c7.75-13.7,15.51-22.83,23.28-27.85c9.12-3.66,23.28-6.85,28.31,4.56
		C120.49,142.35,104.07,152.39,89.91,156.05z M149.25,101.72c-15.98,5.94-34.7,19.64-49.31,6.85c10.05-9.13,22.37-20.08,36.08-32.42
		c9.12,0.91,16.42,3.2,21.45,6.85C158.39,91.67,155.65,98.07,149.25,101.72z M185.32,188.46c-4.1,0-9.12,0-15.51,0
		c0.44-8.23,5.93-12.79,15.51-14.16c9.59,1.37,15.07,5.93,15.52,14.16C194.45,188.46,189.44,188.46,185.32,188.46z M185.32,157.42
		c-5.93-1.82-13.68-1.82-23.28,0c0.46-5.48,2.74-10.95,7.3-14.61c4.56-4.1,10.05-5.47,15.98-5.02c5.95-0.46,11.42,0.91,15.98,5.02
		c4.56,3.66,6.86,9.13,7.3,14.61C199.01,155.59,191.26,155.59,185.32,157.42z M185.32,121.35c-8.21-0.91-17.33-0.46-27.84,0.91
		c2.74-12.33,15.07-20.55,27.84-17.8c12.79-2.74,25.12,5.47,27.85,17.8C202.68,120.9,193.54,120.44,185.32,121.35z M282.56,150.11
		c3.19,5.48,2.28,7.76-1.82,5.94c-14.16-3.66-30.59-13.7-49.76-29.22c5.02-11.41,19.17-8.22,28.29-4.56
		C267.04,127.28,274.81,136.41,282.56,150.11z M221.39,101.72c-6.4-3.65-9.14-10.04-8.22-18.72c5.02-3.65,12.31-5.94,21.45-6.85
		c13.7,12.33,26.03,23.29,36.06,32.42C256.09,121.35,237.37,107.65,221.39,101.72z M275.72,106.74
		c-10.96-9.13-23.29-20.54-37.43-34.7c12.77-5.02,23.28-7.31,32.4-6.39c14.61,6.85,30.59,14.15,47.48,22.37
		C315.89,103.09,301.73,109.48,275.72,106.74z M355.62,67.93c-8.68,9.13-20.1,14.16-33.78,15.07c-3.21-0.91-11.89-4.56-26.49-11.41
		c-11.42-6.39-19.63-10.04-24.66-10.96c-20.54,2.29-39.71,7.31-57.52,15.52c3.65-5.02,5.02-7.3,5.02-7.3
		c51.13-20.09,97.25-24.66,137.43-13.24C361.09,57.44,361.09,61.55,355.62,67.93z"/>
	<path class="st1" d="M599.4,361.49c-3.21-1.82-5.95-4.11-6.86-6.86c7.31-7.3,10.96-17.35,10.51-27.84
		c-0.46-10.51-5.47-20.08-13.24-26.49c-3.19-11.86,3.65-23.73,15.07-27.84c11.42-4.11,24.19,0.91,29.22,11.86
		c-4.12-12.77-17.8-20.54-31.05-16.88c-13.24,3.2-21.45,16.43-19.17,30.13c-3.67-2.28-7.77-2.74-11.87-2.74
		c-4.11-0.46-10.51,0.46-14.61,2.74c2.74-13.7-5.47-26.93-18.72-30.13c-13.24-3.66-26.94,4.11-31.5,16.88
		c5.47-10.95,18.26-15.97,29.68-11.86c11.42,4.11,17.8,15.98,15.07,27.84c-8.23,6.4-12.79,15.98-13.7,26.49
		c-0.46,10.49,3.65,20.54,10.96,27.84c-1.37,2.75-3.66,5.03-6.86,6.86c-47.94-52.96-148.36-26.49-112.75,31.5
		c15.52,18.72,38.34,30.12,62.99,31.05c-10.49,10.49-10.95,27.38-0.91,38.8c9.59,10.95,26.94,12.33,38.36,3.19
		c4.11,11.87,11.86,21.91,22.82,28.31c8.21,6.38,15.52,17.8,18.72,30.12v-1.82c3.19-12.32,9.14-21.91,17.35-28.29
		c10.51-6.4,18.72-16.44,22.37-28.31c11.88,9.14,28.77,7.75,38.82-3.19c10.03-11.42,9.58-28.31-0.91-38.8
		c24.65-0.93,47.47-12.33,62.99-31.05C747.3,335,647.32,308.53,599.4,361.49z M555.11,357.84c6.39,1.37,11.88,2.28,15.52,2.28
		c3.19,0,8.21-0.91,14.16-2.28c2.74,3.19,5.47,5.93,7.75,7.75c-7.75,6.86-21.91,23.73-21.91,23.73
		c-0.46,0.47-15.52-16.88-23.28-23.73C549.63,363.77,552.37,361.03,555.11,357.84z M571.09,429.05c0,0-2.74,0-6.39,0
		c2.28-3.19,5.02-8.22,6.39-13.7c1.37,5.47,3.65,10.51,5.47,13.7H571.09z M586.15,446.4c-10.05,0-20.54,0-30.59,0
		c2.74-3.19,5.93-7.77,9.59-13.7c3.65,0,7.75,0,11.4,0C580.21,438.63,583.42,443.21,586.15,446.4z M440.06,394.36
		c-11.86-16.89-11.86-31.96,0-44.29c46.57-17.35,98.16,1.82,122.8,44.29c-26.01,0.46-47.01,8.21-62.99,23.28
		C474.3,415.81,454.21,408.06,440.06,394.36z M514.94,416.27c11.86-10.51,27.38-15.52,47.92-15.07
		c-42.45,38.34-63.9,57.99-63.9,57.99C482.07,448.22,507.62,422.65,514.94,416.27z M503.06,461.92c0,0,20.54-19.17,61.64-57.08
		c0.91,16.44-5.49,31.96-17.35,42.92C535.02,458.73,519.04,463.75,503.06,461.92z M545.06,471.96c3.21,0.46,47.03,0.46,51.13,0
		C581.14,497.99,561.04,498.9,545.06,471.96z M536.85,465.57c4.56-3.19,9.14-7.3,14.16-13.24c0.91,0.46,37.43,0.46,39.71,0
		c5.02,5.95,9.59,10.05,14.16,13.24C582.05,465.57,559.67,465.57,536.85,465.57z M594.36,447.77
		c-11.86-10.96-18.26-26.49-17.8-42.92c41.55,37.9,62.09,57.08,62.09,57.08C622.67,463.75,606.24,458.73,594.36,447.77z
		 M642.3,459.19c0,0-21-19.64-63.46-57.99c20.1-0.46,36.06,4.56,47.48,15.07C633.64,422.65,659.65,448.22,642.3,459.19z
		 M701.2,394.36c-13.7,13.7-33.78,21.45-59.81,23.28c-15.98-15.07-36.52-22.82-62.55-23.28c24.66-42.46,76.25-61.64,122.36-44.29
		C713.52,362.4,713.52,377.46,701.2,394.36z"/>
	<path class="st2" d="M573.82,80.26c0,0-0.91,0.91-3.19,1.82c-1.82-0.91-2.74-1.82-2.74-1.82
		c-45.66-35.61-105.91-47.03-161.16-29.68c6.4,26.02,25.57,46.57,50.67,55.7c25.57,8.67,53.41,4.1,74.88-12.33
		c-19.64,10.05-42.01,12.33-63.01,5.02c-20.54-6.85-37.43-21.92-47.03-41.54c51.13-8.22,103.17,4.11,145.64,34.24
		c-19.63,10.95-31.96,31.05-32.87,52.96c-1.37,22.37,9.12,43.37,26.93,56.61c1.37,5.48,6.4,19.63,8.68,25.11
		c2.74-5.48,7.75-19.63,8.67-25.11c18.28-13.24,28.31-34.24,27.4-56.61c-1.37-21.91-13.7-42-32.87-52.96
		c42.01-30.13,94.51-42.46,145.18-34.24c-9.14,19.63-26.03,34.7-47.03,41.54c-20.54,7.31-43.38,5.02-62.55-5.02
		c21.45,16.44,49.31,21,74.42,12.33c25.56-9.13,44.73-29.68,51.13-55.7C679.73,33.24,619.48,44.66,573.82,80.26z M570.63,197.13
		c-31.5-26.02-34.7-59.8-2.74-97.24c0.91-0.46,2.28-1.82,2.74-3.19c0.91,1.37,1.82,2.74,3.19,3.19
		C605.33,137.33,602.59,171.11,570.63,197.13z"/>
	<path class="st2" d="M560.12,46.94c-6.39,3.19-9.12,11.41-6.39,18.26c5.47,3.19,11.42,6.85,16.89,11.41
		c5.93-4.56,11.42-8.22,16.89-11.41c3.19-6.85,0.46-15.07-6.39-18.26c6.39-13.24,15.96-24.2,27.84-32.42
		c-13.24,5.48-24.65,15.07-31.05,28.3c-2.28-3.19-3.19-4.56-7.3-5.02c-4.1,0.46-4.56,1.82-6.84,5.02
		c-6.86-13.23-17.8-22.82-31.5-28.3C544.6,22.74,554.2,33.69,560.12,46.94z"/>
</g>
</svg>
